<svg xmlns="http://www.w3.org/2000/svg" aria-hidden="true" role="img" width="1em" height="1em" class="icon" viewBox="0 0 200 200">
  <g clip-path="url(#clip0_103_9)">
    <path d="M89.9318 6.12863C94.1569 -2.04288 105.843 -2.04288 110.068 6.12863L136.973 58.1644C138.051 60.2496 139.75 61.9486 141.836 63.0268L193.871 89.9318C202.043 94.1569 202.043 105.843 193.871 110.068L141.836 136.973C139.75 138.051 138.051 139.75 136.973 141.836L110.068 193.871C105.843 202.043 94.1569 202.043 89.9318 193.871L63.0268 141.836C61.9486 139.75 60.2496 138.051 58.1644 136.973L6.12863 110.068C-2.04288 105.843 -2.04288 94.1569 6.12863 89.9318L58.1644 63.0268C60.2496 61.9486 61.9486 60.2496 63.0268 58.1644L89.9318 6.12863Z" fill="url(#paint0_linear_103_9)"/>
  </g>
  <defs>
    <linearGradient id="paint0_linear_103_9" x1="100" y1="0" x2="100" y2="200" gradientUnits="userSpaceOnUse">
      <stop stop-color="#DF99F7"/>
      <stop offset="1" stop-color="#FFDBB0"/>
    </linearGradient>
    <clipPath id="clip0_103_9">
      <rect width="200" height="200" fill="white"/>
    </clipPath>
  </defs>
</svg>
