<svg width="1200" height="630" viewBox="0 0 1200 630" fill="none" xmlns="http://www.w3.org/2000/svg" xmlns:xlink="http://www.w3.org/1999/xlink">
  <rect width="1200" height="630" fill="#FCFCFD"/>
  <rect x="31.0734" y="410.774" width="1384.58" height="698.975" transform="rotate(-20.2394 31.0734 410.774)" fill="url(#paint0_radial_101_2)"/>

  <g>
    <image width="30" height="29.5" x="40" y="562" xlink:href="/logo.webp" />

    <g id="Keycap">
      <path d="M80.0468 583.172H82.7606V579.009L86.4865 575.399L92.7192 583.172H96.1921L88.4644 573.536L95.8701 566.406H92.3282L82.7606 575.79V566.406H80.0468V583.172Z" fill="#201F23"/>
      <path d="M103.374 583.379C104.539 583.379 105.597 583.218 106.548 582.896C107.498 582.559 108.273 582.091 108.87 581.493C109.484 580.895 109.852 580.198 109.974 579.4H107.422C107.222 580.029 106.77 580.535 106.065 580.918C105.359 581.286 104.485 581.47 103.443 581.47C102.093 581.47 101.02 581.133 100.223 580.458C99.4409 579.784 99.0346 578.833 99.0039 577.607H110.043C110.135 576.181 109.921 574.962 109.399 573.95C108.878 572.938 108.096 572.163 107.054 571.627C106.026 571.09 104.777 570.822 103.305 570.822C101.894 570.822 100.667 571.082 99.6249 571.604C98.5823 572.11 97.7696 572.838 97.187 573.789C96.6197 574.724 96.336 575.843 96.336 577.147C96.336 578.419 96.6197 579.523 97.187 580.458C97.7696 581.394 98.5899 582.114 99.6479 582.62C100.706 583.126 101.948 583.379 103.374 583.379ZM103.282 572.731C104.508 572.731 105.482 573.022 106.203 573.605C106.939 574.172 107.33 574.985 107.376 576.043H98.9809C99.1189 575.015 99.5635 574.21 100.315 573.628C101.066 573.03 102.055 572.731 103.282 572.731Z" fill="#201F23"/>
      <path d="M111.059 587.013H112.807C113.988 587.013 114.954 586.783 115.705 586.323C116.472 585.879 117.093 585.143 117.568 584.115L123.893 571.006H121.11L117.959 577.952L117.177 579.745H117.016L116.188 577.998L112.853 571.006H109.978L115.774 582.275L115.314 583.264C115.069 583.786 114.747 584.184 114.348 584.46C113.949 584.736 113.367 584.874 112.6 584.874H111.059V587.013Z" fill="#201F23"/>
      <path d="M130.636 583.379C131.817 583.379 132.898 583.195 133.879 582.827C134.861 582.444 135.666 581.907 136.294 581.217C136.923 580.527 137.291 579.722 137.398 578.802H134.707C134.523 579.554 134.063 580.159 133.327 580.619C132.591 581.064 131.725 581.286 130.728 581.286C129.379 581.286 128.321 580.918 127.555 580.182C126.803 579.431 126.428 578.404 126.428 577.101C126.428 575.843 126.811 574.831 127.578 574.065C128.359 573.298 129.425 572.915 130.774 572.915C131.756 572.915 132.591 573.114 133.281 573.513C133.987 573.896 134.447 574.471 134.661 575.238H137.306C137.214 574.348 136.884 573.574 136.317 572.915C135.765 572.255 135.014 571.742 134.063 571.374C133.113 571.006 132.016 570.822 130.774 570.822C129.379 570.822 128.153 571.075 127.095 571.581C126.037 572.087 125.216 572.807 124.634 573.743C124.051 574.678 123.76 575.79 123.76 577.078C123.76 578.366 124.036 579.485 124.588 580.435C125.155 581.371 125.952 582.099 126.98 582.62C128.007 583.126 129.226 583.379 130.636 583.379Z" fill="#201F23"/>
      <path d="M144.879 583.379C145.998 583.379 146.995 583.149 147.869 582.689C148.758 582.214 149.395 581.578 149.778 580.78H149.893V583.172H152.561V571.006H150.031L149.939 573.283H149.824C149.456 572.547 148.85 571.956 148.007 571.512C147.164 571.052 146.121 570.822 144.879 570.822C143.683 570.822 142.625 571.075 141.705 571.581C140.801 572.087 140.095 572.807 139.589 573.743C139.083 574.678 138.83 575.797 138.83 577.101C138.83 578.373 139.083 579.485 139.589 580.435C140.095 581.371 140.801 582.099 141.705 582.62C142.61 583.126 143.668 583.379 144.879 583.379ZM145.615 581.309C144.388 581.309 143.399 580.934 142.648 580.182C141.897 579.431 141.521 578.404 141.521 577.101C141.521 575.751 141.897 574.716 142.648 573.996C143.415 573.26 144.404 572.892 145.615 572.892C146.52 572.892 147.286 573.06 147.915 573.398C148.559 573.735 149.05 574.187 149.387 574.755C149.724 575.307 149.893 575.912 149.893 576.572V577.492C149.893 578.166 149.724 578.795 149.387 579.377C149.05 579.96 148.559 580.428 147.915 580.78C147.286 581.133 146.52 581.309 145.615 581.309Z" fill="#201F23"/>
      <path d="M155.126 587.013H157.794V580.78H157.909C158.308 581.578 158.944 582.214 159.818 582.689C160.692 583.149 161.689 583.379 162.808 583.379C164.019 583.379 165.077 583.126 165.982 582.62C166.886 582.099 167.592 581.371 168.098 580.435C168.604 579.485 168.857 578.373 168.857 577.101C168.857 575.797 168.604 574.678 168.098 573.743C167.592 572.807 166.886 572.087 165.982 571.581C165.077 571.075 164.027 570.822 162.831 570.822C161.574 570.822 160.523 571.052 159.68 571.512C158.837 571.956 158.231 572.547 157.863 573.283H157.748L157.656 571.006H155.126V587.013ZM162.072 581.309C161.183 581.309 160.416 581.133 159.772 580.78C159.128 580.428 158.637 579.96 158.3 579.377C157.963 578.795 157.794 578.166 157.794 577.492V576.572C157.794 575.912 157.963 575.307 158.3 574.755C158.637 574.187 159.128 573.735 159.772 573.398C160.416 573.06 161.183 572.892 162.072 572.892C163.299 572.892 164.288 573.26 165.039 573.996C165.805 574.716 166.189 575.751 166.189 577.101C166.189 578.404 165.805 579.431 165.039 580.182C164.288 580.934 163.299 581.309 162.072 581.309Z" fill="#201F23"/>
    </g>
  </g>

  <g>
    <text id="line1" fill="#201F23" xml:space="preserve" style="white-space: pre" font-family="'Mona Sans',Arial,sans-serif" font-size="64" letter-spacing="0em"><tspan x="150" y="279">{{line1}}</tspan></text>
    <text id="line2" fill="#201F23" xml:space="preserve" style="white-space: pre" font-family="'Mona Sans',Arial,sans-serif" font-size="64" letter-spacing="0em"><tspan x="150" y="350">{{line2}}</tspan></text>
  </g>

  <defs>
    <style>
      @font-face {
        font-family: 'Mona Sans';
        src: url('/MonaSans-Regular.woff2') format('woff2')
      }
    </style>

    <radialGradient id="paint0_radial_101_2" cx="0" cy="0" r="1" gradientUnits="userSpaceOnUse" gradientTransform="translate(809.922 1030.5) rotate(-93.0071) scale(612.085 1122.56)">
      <stop stop-color="#A896E9"/>
      <stop offset="1" stop-color="#A896E9" stop-opacity="0"/>
    </radialGradient>
  </defs>
</svg>
