<svg xmlns="http://www.w3.org/2000/svg" xmlns:xlink="http://www.w3.org/1999/xlink" aria-hidden="true" role="img" width="1em" height="1em" class="icon" viewBox="0 0 24 24"><path fill="currentColor" d="M4 17q-.425 0-.713-.288T3 16q0-.425.288-.713T4 15q.425 0 .713.288T5 16q0 .425-.288.713T4 17Zm0-4q-.425 0-.713-.288T3 12q0-.425.288-.713T4 11q.425 0 .713.288T5 12q0 .425-.288.713T4 13Zm0-4q-.425 0-.713-.288T3 8q0-.425.288-.713T4 7q.425 0 .713.288T5 8q0 .425-.288.713T4 9Zm3 8v-2h14v2H7Zm0-4v-2h14v2H7Zm0-4V7h14v2H7Z"/></svg>